<svg xmlns="http://www.w3.org/2000/svg" viewBox="0 0 64 80" x="0px" y="0px"><title>Icon-58</title><path d="M45,62.07l-18-6V34.23l18-6,18,6V56.07ZM29,54.63,45,60l16-5.33v-19L45,30.34,29,35.67Z"/><polygon points="45 41.67 27.68 35.9 28.32 34 45 39.56 61.69 34 62.32 35.9 45 41.67"/><rect x="44" y="40.62" width="2" height="20.4"/><path d="M15,54.19,1,49.52v-17l14-4.67,14,4.67v17ZM3,48.08l12,4,12-4V33.92l-12-4-12,4Z"/><polygon points="15 38.59 1.68 34.15 2.32 32.25 15 36.48 27.68 32.25 28.32 34.15 15 38.59"/><rect x="14" y="37.53" width="2" height="15.6"/><path d="M30,26.05,17,21.8V6.2L30,2,43,6.2V21.8Zm-11-5.7L30,24l11-3.6V7.65L30,4.05,19,7.65Z"/><polygon points="30.01 11.91 17.7 7.88 18.32 5.98 30.01 9.81 41.7 5.98 42.32 7.88 30.01 11.91"/><rect x="29.01" y="10.86" width="2" height="14.14"/><text x="0" y="79" fill="#000000" font-size="5px" font-weight="bold" font-family="'Helvetica Neue', Helvetica, Arial-Unicode, Arial, Sans-serif">Created by howadesign</text><text x="0" y="84" fill="#000000" font-size="5px" font-weight="bold" font-family="'Helvetica Neue', Helvetica, Arial-Unicode, Arial, Sans-serif">from the Noun Project</text></svg>