<svg xmlns="http://www.w3.org/2000/svg" xmlns:xlink="http://www.w3.org/1999/xlink" version="1.1" x="0px" y="0px" viewBox="0 0 100 125" enable-background="new 0 0 100 100" xml:space="preserve"><path fill="#000000" d="M18.404,79.875h56.027c1.104,0,2-0.896,2-2s-0.896-2-2-2H18.404c-1.104,0-2,0.896-2,2  S17.3,79.875,18.404,79.875z"/><path fill="#000000" d="M37.366,72.217h18.104c9.816,0,17.803-7.986,17.803-17.803V33.125c0-1.104-0.896-2-2-2H21.562  c-1.104,0-2,0.896-2,2v21.289C19.562,64.231,27.549,72.217,37.366,72.217z M23.562,35.125h45.711v19.289  c0,7.611-6.191,13.803-13.803,13.803H37.366c-7.611,0-13.804-6.192-13.804-13.803V35.125z"/><path fill="#000000" d="M76.806,55.064c-1.104,0-2,0.896-2,2s0.896,2,2,2c4.883,0,8.854-3.972,8.854-8.854v-3.675  c0-4.882-3.972-8.854-8.854-8.854c-1.104,0-2,0.896-2,2s0.896,2,2,2c2.677,0,4.854,2.178,4.854,4.854v3.675  C81.66,52.886,79.482,55.064,76.806,55.064z"/><text x="0" y="115" fill="#000000" font-size="5px" font-weight="bold" font-family="'Helvetica Neue', Helvetica, Arial-Unicode, Arial, Sans-serif">Created by Yasir B. Eryılmaz</text><text x="0" y="120" fill="#000000" font-size="5px" font-weight="bold" font-family="'Helvetica Neue', Helvetica, Arial-Unicode, Arial, Sans-serif">from the Noun Project</text></svg>